<svg width="23" height="23" viewBox="0 0 23 23" fill="none" xmlns="http://www.w3.org/2000/svg">
<path d="M5.64365 12.8499C5.44582 11.9652 5.44935 11.0474 5.654 10.1642C5.85864 9.28107 6.25916 8.4552 6.82594 7.74768C7.39273 7.04016 8.11128 6.46907 8.92849 6.07663C9.74569 5.68419 10.6406 5.48044 11.5472 5.48044C12.4537 5.48044 13.3487 5.68419 14.1659 6.07663C14.9831 6.46907 15.7017 7.04016 16.2685 7.74768C16.8352 8.4552 17.2358 9.28107 17.4404 10.1642C17.645 11.0474 17.6486 11.9652 17.4507 12.8499H21.6249C21.804 12.8499 21.9757 12.921 22.1022 13.0476C22.2288 13.1742 22.2999 13.3459 22.2999 13.5249C22.2999 13.7039 22.2288 13.8756 22.1022 14.0022C21.9757 14.1288 21.804 14.1999 21.6249 14.1999H1.37495C1.19593 14.1999 1.02424 14.1288 0.897654 14.0022C0.771067 13.8756 0.699951 13.7039 0.699951 13.5249C0.699951 13.3459 0.771067 13.1742 0.897654 13.0476C1.02424 12.921 1.19593 12.8499 1.37495 12.8499H5.64365ZM11.6822 22.2999C11.5844 22.3218 11.483 22.3218 11.3852 22.2999H11.6822ZM4.85255 3.91562L4.7594 3.83732C4.62081 3.74105 4.45118 3.70019 4.28395 3.72278C4.11673 3.74538 3.96403 3.82979 3.85595 3.95938C3.74787 4.08897 3.69225 4.25435 3.70005 4.42291C3.70785 4.59148 3.77851 4.75101 3.8981 4.87007L5.0564 6.02837L5.1509 6.10667C5.28949 6.20293 5.45912 6.24379 5.62635 6.2212C5.79357 6.19861 5.94627 6.1142 6.05435 5.9846C6.16243 5.85501 6.21805 5.68963 6.21025 5.52107C6.20245 5.3525 6.13179 5.19297 6.0122 5.07392L4.85255 3.91562ZM19.2476 4.77557C19.3423 4.6369 19.382 4.4679 19.3588 4.30158C19.3356 4.13526 19.2512 3.98356 19.1222 3.8761C18.9931 3.76864 18.8286 3.71315 18.6609 3.72046C18.4931 3.72776 18.3341 3.79735 18.2148 3.91562L17.0552 5.07392L16.9769 5.16842C16.8822 5.30708 16.8425 5.47608 16.8657 5.6424C16.8889 5.80872 16.9733 5.96042 17.1023 6.06788C17.2314 6.17534 17.3959 6.23083 17.5636 6.22353C17.7314 6.21622 17.8904 6.14664 18.0096 6.02837L19.1693 4.87007L19.2476 4.77557V4.77557ZM12.2019 1.28717C12.1719 1.12119 12.0808 0.972475 11.9466 0.870313C11.8124 0.768151 11.6447 0.719943 11.4768 0.735184C11.3088 0.750425 11.1526 0.828009 11.0389 0.952659C10.9253 1.07731 10.8624 1.23999 10.8627 1.40867V3.04622L10.8735 3.16772C10.9036 3.33369 10.9947 3.48241 11.1289 3.58457C11.2631 3.68673 11.4308 3.73494 11.5987 3.7197C11.7667 3.70446 11.9229 3.62687 12.0366 3.50222C12.1502 3.37757 12.2131 3.21489 12.2127 3.04622V1.40732L12.2019 1.28582V1.28717ZM9.47495 19.5999C9.29593 19.5999 9.12424 19.671 8.99765 19.7976C8.87107 19.9242 8.79995 20.0959 8.79995 20.2749C8.79995 20.4539 8.87107 20.6256 8.99765 20.7522C9.12424 20.8788 9.29593 20.9499 9.47495 20.9499H13.5249C13.704 20.9499 13.8757 20.8788 14.0022 20.7522C14.1288 20.6256 14.1999 20.4539 14.1999 20.2749C14.1999 20.0959 14.1288 19.9242 14.0022 19.7976C13.8757 19.671 13.704 19.5999 13.5249 19.5999H9.47495ZM4.74995 16.8999C4.74995 16.7209 4.82107 16.5492 4.94765 16.4226C5.07424 16.296 5.24593 16.2249 5.42495 16.2249H17.5749C17.754 16.2249 17.9257 16.296 18.0522 16.4226C18.1788 16.5492 18.2499 16.7209 18.2499 16.8999C18.2499 17.0789 18.1788 17.2506 18.0522 17.3772C17.9257 17.5038 17.754 17.5749 17.5749 17.5749H5.42495C5.24593 17.5749 5.07424 17.5038 4.94765 17.3772C4.82107 17.2506 4.74995 17.0789 4.74995 16.8999Z" fill="#EDC124"/>
</svg>
