<svg width="15" height="16" viewBox="0 0 15 16" fill="none" xmlns="http://www.w3.org/2000/svg">
<path d="M13.5902 11.9629C12.917 13.1299 11.9594 14.1075 10.8065 14.8046C9.65356 15.5018 8.34296 15.8957 6.99677 15.9497C5.65058 16.0037 4.31263 15.716 3.1076 15.1135C1.90256 14.511 0.869672 13.6132 0.105175 12.5039C0.0532826 12.4283 0.0194341 12.3418 0.00623739 12.251C-0.00695936 12.1603 0.000847872 12.0678 0.0290576 11.9805C0.0572674 11.8933 0.105127 11.8137 0.168948 11.7479C0.23277 11.682 0.310851 11.6317 0.397175 11.6009C3.40318 10.5249 5.01318 9.27786 5.94718 7.49386C6.93118 5.61686 7.18518 3.55986 6.49718 0.740858C6.47505 0.650078 6.47446 0.55538 6.49547 0.464334C6.51648 0.373288 6.55849 0.288419 6.61815 0.216511C6.67782 0.144603 6.75348 0.0876494 6.83908 0.050204C6.92469 0.0127587 7.01787 -0.00414032 7.11117 0.000857588C8.47368 0.0747958 9.79448 0.496829 10.9474 1.22665C12.1003 1.95647 13.0469 2.9697 13.6967 4.16956C14.3465 5.36942 14.6778 6.71584 14.659 8.08022C14.6401 9.44461 14.2718 10.7814 13.5892 11.9629H13.5902Z" fill="#0F3C81"/>
</svg>
