<svg width="22" height="22" viewBox="0 0 22 22" fill="none" xmlns="http://www.w3.org/2000/svg">
<path d="M7.64597 5.92607C6.55397 5.42817 5.42817 6.55397 5.92607 7.64727L7.85267 11.8879C8.3079 12.8894 9.11056 13.692 10.1121 14.1473L14.3527 16.0739C15.446 16.5718 16.5718 15.4473 16.0739 14.3527L14.1473 10.1121C13.692 9.11056 12.8894 8.3079 11.8879 7.85267L7.64597 5.92607ZM7.10907 7.10907L11.3497 9.03697C12.0645 9.36179 12.6376 9.9344 12.963 10.649L14.8909 14.8896L10.6503 12.9617C9.93567 12.6372 9.36262 12.0651 9.03697 11.351L7.10907 7.10907ZM11 0.599976C8.24172 0.599976 5.59644 1.69569 3.64606 3.64606C1.69569 5.59644 0.599976 8.24172 0.599976 11C0.599976 13.7582 1.69569 16.4035 3.64606 18.3539C5.59644 20.3043 8.24172 21.4 11 21.4C13.7582 21.4 16.4035 20.3043 18.3539 18.3539C20.3043 16.4035 21.4 13.7582 21.4 11C21.4 8.24172 20.3043 5.59644 18.3539 3.64606C16.4035 1.69569 13.7582 0.599976 11 0.599976ZM11 1.89998V3.84997C11 4.02237 11.0685 4.1877 11.1904 4.30959C11.3123 4.43149 11.4776 4.49997 11.65 4.49997C11.8224 4.49997 11.9877 4.43149 12.1096 4.30959C12.2315 4.1877 12.3 4.02237 12.3 3.84997V1.99098C14.2447 2.27207 16.0463 3.17475 17.4358 4.56418C18.8252 5.95361 19.7279 7.75523 20.009 9.69997H18.15C17.9776 9.69997 17.8123 9.76845 17.6904 9.89035C17.5685 10.0123 17.5 10.1776 17.5 10.35C17.5 10.5224 17.5685 10.6877 17.6904 10.8096C17.8123 10.9315 17.9776 11 18.15 11H20.1C20.1003 13.1885 19.3119 15.3039 17.8794 16.9585C16.4468 18.6131 14.4661 19.6961 12.3 20.009V18.15C12.3 17.9776 12.2315 17.8123 12.1096 17.6904C11.9877 17.5685 11.8224 17.5 11.65 17.5C11.4776 17.5 11.3123 17.5685 11.1904 17.6904C11.0685 17.8123 11 17.9776 11 18.15V20.1C8.5865 20.1 6.27188 19.1412 4.5653 17.4346C2.85872 15.7281 1.89998 13.4134 1.89998 11H3.84997C4.02237 11 4.1877 10.9315 4.30959 10.8096C4.43149 10.6877 4.49997 10.5224 4.49997 10.35C4.49997 10.1776 4.43149 10.0123 4.30959 9.89035C4.1877 9.76845 4.02237 9.69997 3.84997 9.69997H1.99098C2.30415 7.53401 3.3872 5.55338 5.04172 4.12089C6.69625 2.6884 8.81149 1.89996 11 1.89998Z" fill="#969696"/>
</svg>
