<svg width="21" height="20" viewBox="0 0 21 20" fill="none" xmlns="http://www.w3.org/2000/svg">
<path d="M0 1.87258C0 0.837536 0.838786 0 1.87508 0H3.12513C4.15893 0 4.99897 0.837536 4.99897 1.87258V18.1008C4.99897 19.1346 4.15893 19.9721 3.12388 19.9721H1.87383C0.838786 19.9721 0 19.1346 0 18.1008V1.87258ZM1.87508 1.24755C1.70931 1.24755 1.55034 1.3134 1.43312 1.43062C1.3159 1.54784 1.25005 1.70681 1.25005 1.87258V18.1008C1.25038 18.2663 1.31638 18.425 1.43356 18.5419C1.55074 18.6589 1.70953 18.7246 1.87508 18.7246H3.12513C3.29069 18.7242 3.44934 18.6582 3.56629 18.541C3.68323 18.4239 3.74891 18.2651 3.74891 18.0995V1.87383C3.74891 1.70806 3.68306 1.54909 3.56585 1.43187C3.44863 1.31465 3.28965 1.2488 3.12388 1.2488H1.87383L1.87508 1.24755ZM6.24777 1.87258C6.24777 0.837536 7.08781 0 8.12285 0H9.3729C10.4079 0 11.2467 0.837536 11.2467 1.87258V18.1008C11.2467 19.1346 10.4079 19.9721 9.37165 19.9721H8.1216C7.08781 19.9721 6.24777 19.1346 6.24777 18.1008V1.87258ZM8.12285 1.24755C7.95708 1.24755 7.7981 1.3134 7.68089 1.43062C7.56367 1.54784 7.49782 1.70681 7.49782 1.87258V18.1008C7.49815 18.2663 7.56415 18.425 7.68133 18.5419C7.79851 18.6589 7.9573 18.7246 8.12285 18.7246H9.3729C9.53867 18.7246 9.69765 18.6587 9.81486 18.5415C9.93208 18.4243 9.99793 18.2653 9.99793 18.0995V1.87383C9.99793 1.70806 9.93208 1.54909 9.81486 1.43187C9.69765 1.31465 9.53867 1.2488 9.3729 1.2488H8.12285V1.24755ZM17.1482 5.19647C17.0911 4.94902 16.9843 4.71574 16.8344 4.51079C16.6844 4.30585 16.4943 4.13351 16.2757 4.00422C16.0571 3.87494 15.8146 3.7914 15.5627 3.75869C15.3109 3.72598 15.055 3.74477 14.8106 3.81391L13.8793 4.07643C13.4246 4.20505 13.0354 4.50085 12.7896 4.90449C12.5438 5.30812 12.4598 5.78975 12.5543 6.25277L15.0581 18.5033C15.1093 18.7516 15.2103 18.9869 15.3549 19.1951C15.4996 19.4032 15.685 19.5799 15.8999 19.7144C16.1147 19.8488 16.3546 19.9384 16.6051 19.9775C16.8555 20.0167 17.1113 20.0046 17.357 19.9421L18.5883 19.6296C19.5758 19.3796 20.1809 18.387 19.9534 17.3957L17.1482 5.19522V5.19647ZM15.1507 5.01522C15.2321 4.99203 15.3174 4.98563 15.4014 4.99642C15.4854 5.00721 15.5664 5.03496 15.6393 5.07798C15.7123 5.121 15.7757 5.1784 15.8258 5.24669C15.8759 5.31498 15.9116 5.39273 15.9307 5.47524L18.7346 17.6758C18.7706 17.8346 18.7431 18.0012 18.6582 18.1401C18.5732 18.279 18.4373 18.3793 18.2795 18.4195L17.0482 18.7321C16.9664 18.7529 16.8812 18.7569 16.7978 18.7439C16.7143 18.731 16.6344 18.7012 16.5628 18.6564C16.4912 18.6117 16.4294 18.5529 16.3811 18.4836C16.3328 18.4143 16.2991 18.336 16.282 18.2533L13.7781 6.00276C13.7469 5.84855 13.775 5.68825 13.8568 5.55386C13.9386 5.41946 14.0681 5.32086 14.2194 5.27773L15.1507 5.01522Z" fill="#969696"/>
</svg>
