<svg width="19" height="21" viewBox="0 0 19 21" fill="none" xmlns="http://www.w3.org/2000/svg">
<path d="M9.18738 0C7.79499 0 6.45963 0.553123 5.47507 1.53769C4.4905 2.52226 3.93738 3.85761 3.93738 5.25C3.93738 6.64239 4.4905 7.97775 5.47507 8.96231C6.45963 9.94688 7.79499 10.5 9.18738 10.5C10.5798 10.5 11.9151 9.94688 12.8997 8.96231C13.8843 7.97775 14.4374 6.64239 14.4374 5.25C14.4374 3.85761 13.8843 2.52226 12.8997 1.53769C11.9151 0.553123 10.5798 0 9.18738 0ZM5.24988 5.25C5.24988 4.20571 5.66472 3.20419 6.40315 2.46577C7.14157 1.72734 8.14309 1.3125 9.18738 1.3125C10.2317 1.3125 11.2332 1.72734 11.9716 2.46577C12.71 3.20419 13.1249 4.20571 13.1249 5.25C13.1249 6.29429 12.71 7.29581 11.9716 8.03423C11.2332 8.77266 10.2317 9.1875 9.18738 9.1875C8.14309 9.1875 7.14157 8.77266 6.40315 8.03423C5.66472 7.29581 5.24988 6.29429 5.24988 5.25ZM2.63669 11.8125C2.29103 11.8111 1.94849 11.878 1.62872 12.0093C1.30896 12.1406 1.01825 12.3337 0.773281 12.5775C0.528309 12.8214 0.333889 13.1113 0.201171 13.4304C0.0684533 13.7496 4.79141e-05 14.0918 -0.00012207 14.4375C-0.00012207 16.6569 1.09319 18.3304 2.80207 19.4211C4.48469 20.4934 6.75269 21 9.18738 21C11.6221 21 13.8901 20.4934 15.5727 19.4211C17.2816 18.3317 18.3749 16.6556 18.3749 14.4375C18.3749 13.7413 18.0983 13.0736 17.606 12.5813C17.1138 12.0891 16.4461 11.8125 15.7499 11.8125H2.63669ZM1.31238 14.4375C1.31238 13.7117 1.90038 13.125 2.63669 13.125H15.7499C16.098 13.125 16.4318 13.2633 16.678 13.5094C16.9241 13.7556 17.0624 14.0894 17.0624 14.4375C17.0624 16.1556 16.246 17.4352 14.8666 18.3133C13.4622 19.2097 11.4646 19.6875 9.18738 19.6875C6.91019 19.6875 4.91257 19.2097 3.50819 18.3133C2.13007 17.4339 1.31238 16.1569 1.31238 14.4375Z" fill="#969696"/>
</svg>
