<svg width="20" height="19" viewBox="0 0 20 19" fill="none" xmlns="http://www.w3.org/2000/svg">
<path d="M6.0155 0C5.38561 0 4.78152 0.250222 4.33612 0.695621C3.89073 1.14102 3.6405 1.74511 3.6405 2.375H2.453C1.82311 2.375 1.21902 2.62522 0.773624 3.07062C0.328225 3.51602 0.0780029 4.12011 0.0780029 4.75V14.25C0.0780029 14.8799 0.328225 15.484 0.773624 15.9294C1.21902 16.3748 1.82311 16.625 2.453 16.625H3.6405C3.6405 17.2549 3.89073 17.859 4.33612 18.3044C4.78152 18.7498 5.38561 19 6.0155 19H13.1405C13.7704 19 14.3745 18.7498 14.8199 18.3044C15.2653 17.859 15.5155 17.2549 15.5155 16.625H16.703C17.3329 16.625 17.937 16.3748 18.3824 15.9294C18.8278 15.484 19.078 14.8799 19.078 14.25V4.75C19.078 4.12011 18.8278 3.51602 18.3824 3.07062C17.937 2.62522 17.3329 2.375 16.703 2.375H15.5155C15.5155 1.74511 15.2653 1.14102 14.8199 0.695621C14.3745 0.250222 13.7704 0 13.1405 0H6.0155ZM15.5155 3.5625H16.703C17.0179 3.5625 17.32 3.68761 17.5427 3.91031C17.7654 4.13301 17.8905 4.43506 17.8905 4.75V14.25C17.8905 14.5649 17.7654 14.867 17.5427 15.0897C17.32 15.3124 17.0179 15.4375 16.703 15.4375H15.5155V3.5625ZM3.6405 15.4375H2.453C2.13806 15.4375 1.83601 15.3124 1.61331 15.0897C1.39061 14.867 1.2655 14.5649 1.2655 14.25V4.75C1.2655 4.43506 1.39061 4.13301 1.61331 3.91031C1.83601 3.68761 2.13806 3.5625 2.453 3.5625H3.6405V15.4375ZM4.828 2.375C4.828 2.06006 4.95311 1.75801 5.17581 1.53531C5.39851 1.31261 5.70056 1.1875 6.0155 1.1875H13.1405C13.4554 1.1875 13.7575 1.31261 13.9802 1.53531C14.2029 1.75801 14.328 2.06006 14.328 2.375V16.625C14.328 16.9399 14.2029 17.242 13.9802 17.4647C13.7575 17.6874 13.4554 17.8125 13.1405 17.8125H6.0155C5.70056 17.8125 5.39851 17.6874 5.17581 17.4647C4.95311 17.242 4.828 16.9399 4.828 16.625V2.375Z" fill="#969696"/>
</svg>
