<svg width="11" height="13" viewBox="0 0 11 13" fill="none" xmlns="http://www.w3.org/2000/svg">
<path d="M7.15063 0.912237C7.23553 0.947979 7.30801 1.00794 7.35903 1.08464C7.41006 1.16134 7.43735 1.25137 7.4375 1.34349V11.656C7.43749 11.7483 7.41022 11.8385 7.35912 11.9154C7.30802 11.9923 7.23537 12.0524 7.15026 12.0881C7.06516 12.1238 6.9714 12.1337 6.88074 12.1163C6.79007 12.099 6.70654 12.0553 6.64062 11.9907L3.89656 9.29536H2.28125C1.90829 9.29536 1.5506 9.1472 1.28688 8.88348C1.02316 8.61976 0.875 8.26207 0.875 7.88911V5.08599C0.875 4.71303 1.02316 4.35534 1.28688 4.09162C1.5506 3.8279 1.90829 3.67974 2.28125 3.67974H3.8975L6.64156 1.00786C6.70753 0.943509 6.791 0.900026 6.88154 0.882852C6.97208 0.865677 7.06568 0.875572 7.15063 0.9113V0.912237ZM6.5 2.45349L4.41594 4.48505C4.32817 4.57062 4.21039 4.61841 4.08781 4.61818H2.28125C2.15693 4.61818 2.0377 4.66756 1.94979 4.75547C1.86189 4.84338 1.8125 4.9626 1.8125 5.08693V7.88911C1.8125 8.01343 1.86189 8.13266 1.94979 8.22057C2.0377 8.30848 2.15693 8.35786 2.28125 8.35786H4.08875C4.21146 8.35788 4.32926 8.40601 4.41687 8.49193L6.5 10.5385V2.45442V2.45349ZM8.47906 3.86349C8.51739 3.81526 8.56485 3.77505 8.61872 3.74518C8.6726 3.7153 8.73184 3.69634 8.79305 3.68937C8.85426 3.68241 8.91624 3.68758 8.97545 3.70458C9.03466 3.72159 9.08994 3.7501 9.13813 3.78849L9.14 3.78943L9.14188 3.7913L9.14656 3.79505L9.16063 3.80724L9.20375 3.84474C9.2375 3.87661 9.28344 3.91974 9.33687 3.97786C9.44281 4.09317 9.58062 4.26099 9.71656 4.48411C9.98938 4.93411 10.2537 5.60255 10.2537 6.49786C10.2537 7.39224 9.98938 8.06161 9.71656 8.51161C9.60719 8.69289 9.48 8.86279 9.33687 9.0188C9.27726 9.08356 9.21403 9.14491 9.1475 9.20255L9.14 9.20911H9.13906C9.13906 9.20911 8.72 9.43693 8.48 9.13599C8.40283 9.03943 8.36691 8.9163 8.38008 8.79339C8.39325 8.67048 8.45443 8.55775 8.55031 8.47974L8.55219 8.47786L8.55125 8.4788L8.55312 8.47786H8.55219L8.56906 8.46286C8.58594 8.44693 8.61406 8.42068 8.64875 8.38318C8.74915 8.27292 8.83834 8.15295 8.915 8.02505C9.11188 7.70161 9.31625 7.19817 9.31625 6.49693C9.31625 5.79661 9.11188 5.29411 8.915 4.97161C8.81861 4.8125 8.70271 4.66605 8.57 4.53568C8.51874 4.49838 8.47557 4.45107 8.44311 4.39661C8.41066 4.34215 8.38959 4.28167 8.38117 4.21884C8.37276 4.156 8.37718 4.09211 8.39417 4.03103C8.41115 3.96996 8.44035 3.91296 8.48 3.86349H8.47906ZM8.55312 4.51974H8.55125H8.55312Z" fill="white"/>
</svg>
